HIERARCHY
ROOT Hips
{
    OFFSET   0.000000   0.000000   0.000000
    CHANNELS 6 Xposition Yposition Zposition Zrotation Xrotation Yrotation
    JOINT Chest
    {
        OFFSET   0.000000   8.007230   0.000000
        CHANNELS 3 Zrotation Xrotation Yrotation
        JOINT Chest2
        {
            OFFSET   0.000000  22.077100   0.000000
            CHANNELS 3 Zrotation Xrotation Yrotation
            JOINT Neck
            {
                OFFSET   0.000000  23.254800  -0.000021
                CHANNELS 3 Zrotation Xrotation Yrotation
                JOINT Head
                {
                    OFFSET   0.000000  14.370000   1.956610
                    CHANNELS 3 Zrotation Xrotation Yrotation
                    End Site
                    {
                        OFFSET   0.000000  19.566000   0.000000
                    }
                }
            }
            JOINT LeftCollar
            {
                OFFSET   3.911900  19.017000  -0.467063
                CHANNELS 3 Zrotation Xrotation Yrotation
                JOINT LeftShoulder
                {
                    OFFSET  10.383700   0.000000   0.000000
                    CHANNELS 3 Zrotation Xrotation Yrotation
                    JOINT LeftElbow
                    {
                        OFFSET  26.662100   0.001529   0.000325
                        CHANNELS 3 Zrotation Xrotation Yrotation
                        JOINT LeftWrist
                        {
                            OFFSET  28.869000  -0.000011  -0.000096
                            CHANNELS 3 Zrotation Xrotation Yrotation
                            JOINT LeftFinger0
                            {
                                OFFSET   2.044650  -2.323460   3.252850
                                CHANNELS 3 Zrotation Xrotation Yrotation
                                JOINT LeftFinger01
                                {
                                    OFFSET   3.088130   0.000000   0.000000
                                    CHANNELS 3 Zrotation Xrotation Yrotation
                                    JOINT LeftFinger02
                                    {
                                        OFFSET   2.639460   0.000000   0.000000
                                        CHANNELS 3 Zrotation Xrotation Yrotation
                                        End Site
                                        {
                                            OFFSET   2.582190   0.000000   0.000000
                                        }
                                    }
                                }
                            }
                            JOINT LeftFinger1
                            {
                                OFFSET   8.364480   0.000000   3.252850
                                CHANNELS 3 Zrotation Xrotation Yrotation
                                JOINT LeftFinger11
                                {
                                    OFFSET   4.646930   0.000000   0.000000
                                    CHANNELS 3 Zrotation Xrotation Yrotation
                                    JOINT LeftFinger12
                                    {
                                        OFFSET   2.323460   0.000000   0.000000
                                        CHANNELS 3 Zrotation Xrotation Yrotation
                                        End Site
                                        {
                                            OFFSET   2.273050   0.000000   0.000000
                                        }
                                    }
                                }
                            }
                            JOINT LeftFinger2
                            {
                                OFFSET   8.364480   0.000016   1.078090
                                CHANNELS 3 Zrotation Xrotation Yrotation
                                JOINT LeftFinger21
                                {
                                    OFFSET   5.111620   0.000000   0.000000
                                    CHANNELS 3 Zrotation Xrotation Yrotation
                                    JOINT LeftFinger22
                                    {
                                        OFFSET   2.788160   0.000017   0.000000
                                        CHANNELS 3 Zrotation Xrotation Yrotation
                                        End Site
                                        {
                                            OFFSET   2.727660   0.000000   0.000000
                                        }
                                    }
                                }
                            }
                            JOINT LeftFinger3
                            {
                                OFFSET   7.899780   0.000015  -1.078090
                                CHANNELS 3 Zrotation Xrotation Yrotation
                                JOINT LeftFinger31
                                {
                                    OFFSET   4.646920   0.000000   0.000000
                                    CHANNELS 3 Zrotation Xrotation Yrotation
                                    JOINT LeftFinger32
                                    {
                                        OFFSET   2.323470   0.000000   0.000000
                                        CHANNELS 3 Zrotation Xrotation Yrotation
                                        End Site
                                        {
                                            OFFSET   2.273050   0.000000   0.000000
                                        }
                                    }
                                }
                            }
                            JOINT LeftFinger4
                            {
                                OFFSET   7.435090   0.000000  -3.252850
                                CHANNELS 3 Zrotation Xrotation Yrotation
                                JOINT LeftFinger41
                                {
                                    OFFSET   3.717550   0.000000   0.000000
                                    CHANNELS 3 Zrotation Xrotation Yrotation
                                    JOINT LeftFinger42
                                    {
                                        OFFSET   1.858760   0.000000   0.000000
                                        CHANNELS 3 Zrotation Xrotation Yrotation
                                        End Site
                                        {
                                            OFFSET   1.818440   0.000000   0.000000
                                        }
                                    }
                                }
                            }
                        }
                    }
                }
            }
            JOINT RightCollar
            {
                OFFSET  -3.911900  19.017000  -0.467062
                CHANNELS 3 Zrotation Xrotation Yrotation
                JOINT RightShoulder
                {
                    OFFSET -10.383700   0.000015   0.000000
                    CHANNELS 3 Zrotation Xrotation Yrotation
                    JOINT RightElbow
                    {
                        OFFSET -26.662100   0.001341   0.000385
                        CHANNELS 3 Zrotation Xrotation Yrotation
                        JOINT RightWrist
                        {
                            OFFSET -28.869000   0.000025  -0.000080
                            CHANNELS 3 Zrotation Xrotation Yrotation
                            JOINT RightFinger0
                            {
                                OFFSET  -2.044650  -2.323490   3.252850
                                CHANNELS 3 Zrotation Xrotation Yrotation
                                JOINT RightFinger01
                                {
                                    OFFSET  -3.088130   0.000000   0.000000
                                    CHANNELS 3 Zrotation Xrotation Yrotation
                                    JOINT RightFinger02
                                    {
                                        OFFSET  -2.639460   0.000000   0.000000
                                        CHANNELS 3 Zrotation Xrotation Yrotation
                                        End Site
                                        {
                                            OFFSET  -2.582190   0.000000   0.000000
                                        }
                                    }
                                }
                            }
                            JOINT RightFinger1
                            {
                                OFFSET  -8.364480   0.000000   3.252850
                                CHANNELS 3 Zrotation Xrotation Yrotation
                                JOINT RightFinger11
                                {
                                    OFFSET  -4.646930   0.000000   0.000000
                                    CHANNELS 3 Zrotation Xrotation Yrotation
                                    JOINT RightFinger12
                                    {
                                        OFFSET  -2.323470   0.000000   0.000000
                                        CHANNELS 3 Zrotation Xrotation Yrotation
                                        End Site
                                        {
                                            OFFSET  -2.273050   0.000000   0.000000
                                        }
                                    }
                                }
                            }
                            JOINT RightFinger2
                            {
                                OFFSET  -8.364480   0.000000   1.078090
                                CHANNELS 3 Zrotation Xrotation Yrotation
                                JOINT RightFinger21
                                {
                                    OFFSET  -5.111610   0.000000   0.000000
                                    CHANNELS 3 Zrotation Xrotation Yrotation
                                    JOINT RightFinger22
                                    {
                                        OFFSET  -2.788160   0.000000   0.000000
                                        CHANNELS 3 Zrotation Xrotation Yrotation
                                        End Site
                                        {
                                            OFFSET  -2.727660   0.000000   0.000000
                                        }
                                    }
                                }
                            }
                            JOINT RightFinger3
                            {
                                OFFSET  -7.899780   0.000000  -1.078090
                                CHANNELS 3 Zrotation Xrotation Yrotation
                                JOINT RightFinger31
                                {
                                    OFFSET  -4.646920   0.000000   0.000000
                                    CHANNELS 3 Zrotation Xrotation Yrotation
                                    JOINT RightFinger32
                                    {
                                        OFFSET  -2.323470   0.000000   0.000000
                                        CHANNELS 3 Zrotation Xrotation Yrotation
                                        End Site
                                        {
                                            OFFSET  -2.273050   0.000000   0.000000
                                        }
                                    }
                                }
                            }
                            JOINT RightFinger4
                            {
                                OFFSET  -7.435090   0.000000  -3.252850
                                CHANNELS 3 Zrotation Xrotation Yrotation
                                JOINT RightFinger41
                                {
                                    OFFSET  -3.717550   0.000000   0.000000
                                    CHANNELS 3 Zrotation Xrotation Yrotation
                                    JOINT RightFinger42
                                    {
                                        OFFSET  -1.858770   0.000000   0.000000
                                        CHANNELS 3 Zrotation Xrotation Yrotation
                                        End Site
                                        {
                                            OFFSET  -1.818440   0.000000   0.000000
                                        }
                                    }
                                }
                            }
                        }
                    }
                }
            }
        }
    }
    JOINT LeftHip
    {
        OFFSET   9.783010   0.000000   0.000000
        CHANNELS 3 Zrotation Xrotation Yrotation
        JOINT LeftKnee
        {
            OFFSET   0.000070 -41.789100   0.000028
            CHANNELS 3 Zrotation Xrotation Yrotation
            JOINT LeftAnkle
            {
                OFFSET   0.000087 -41.133200  -0.000100
                CHANNELS 3 Zrotation Xrotation Yrotation
                JOINT LeftToe
                {
                    OFFSET   0.000000  -6.358960  14.674500
                    CHANNELS 3 Zrotation Xrotation Yrotation
                    End Site
                    {
                        OFFSET   0.000000   0.000000   3.913200
                    }
                }
            }
        }
    }
    JOINT RightHip
    {
        OFFSET  -9.783020   0.000000   0.000000
        CHANNELS 3 Zrotation Xrotation Yrotation
        JOINT RightKnee
        {
            OFFSET   0.000044 -41.789100  -0.000870
            CHANNELS 3 Zrotation Xrotation Yrotation
            JOINT RightAnkle
            {
                OFFSET  -0.000090 -41.133200  -0.000245
                CHANNELS 3 Zrotation Xrotation Yrotation
                JOINT RightToe
                {
                    OFFSET   0.000000  -6.358960  14.674500
                    CHANNELS 3 Zrotation Xrotation Yrotation
                    End Site
                    {
                        OFFSET   0.000000   0.000000   3.913200
                    }
                }
            }
        }
    }
}
MOTION
Frames: 4
Frame Time:   0.016667
 -2.474760  89.441700  -0.339629  -0.434752  -9.480680   2.399520  -1.388100   6.733690  -0.546631  -2.739690  13.478500  -0.937344   9.080410  -0.153305   0.024490  14.918100  -0.287669   1.640290  -1.890100   2.639440   6.419420 -72.885100   9.921420  -1.868230  -0.814316   0.603150 -12.601200  11.306800  -5.644400  -2.051580  36.283800  28.072200 -45.656400 -34.668300  -0.000869  -0.000561 -12.395200  -0.000519   0.002936 -37.972600  -0.895569   1.147190 -31.075900   0.000259  -0.002939 -21.752600   0.002820   0.005017 -30.167500  -3.737370   6.398350 -45.564700  -0.002090  -0.004108 -30.346100  -0.001432  -0.005264 -29.150200  -4.783370   8.503620 -44.257900   0.000159   0.008821 -29.475800  -0.001137   0.003491 -39.168500  -6.192760   7.542900 -59.365700   0.008561  -0.008715 -39.537500   0.007831   0.000000   2.450550  -1.661060   4.460150  -9.031540 -12.066900  36.054600 -29.696100  12.163300  80.688400 -31.108700  29.371600  41.767000 -59.040500  54.333300 108.293000 -17.129300  -0.001633  -0.000399 -13.564700  -0.006413   0.000625  83.061600   4.957550   0.603309  67.980700   0.007953   0.000340  50.985600   0.001135  -0.001640  77.959400   0.006641   0.008937  77.959400   0.005532  -0.000670  58.469600  -0.000686  -0.006495  84.185500  -4.970580  -0.509984  84.207600   0.007979  -0.005886  63.155700   0.005146  -0.002164  87.146700  -9.983580  -0.495201 110.000000  -0.003182  -0.004771  80.000000   0.000492   0.004298   3.796110  10.917400  -1.822170   0.258011   1.527120  11.453200  -3.722090  -3.411320  -0.988599   0.000000   0.000000  -0.000000  -0.087109  11.770500  -7.181660   1.297300   1.534810 -13.142100  -0.148225  -3.958790  -0.724578   0.000000   0.000000   0.000000
 -2.463930  89.443000  -0.350960  -0.443394  -9.429620   2.347970  -1.389330   6.707120  -0.538187  -2.743390  13.425200  -0.920723   9.072310  -0.123075   0.019492  14.904300  -0.231138   1.606930  -1.914130   2.708790   6.420820 -72.984200   9.901790  -1.832620  -0.809475   0.630891 -12.569500  11.320800  -5.733010  -2.043300  36.293700  28.080900 -45.698500 -34.652900  -0.000900  -0.000570 -12.379200  -0.000533   0.002833 -37.967400  -0.906794   1.161710 -31.076100   0.000251  -0.002951 -21.753000   0.002890   0.005079 -30.185200  -3.737080   6.393410 -45.591100  -0.002146  -0.004279 -30.363600  -0.001471  -0.005406 -29.144400  -4.792540   8.521820 -44.251300   0.000198   0.008969 -29.469300  -0.001101   0.003347 -39.148700  -6.202630   7.561160 -59.338100   0.008737  -0.008830 -39.519200   0.007973   0.000051   2.437830  -1.621730   4.424010  -9.025460 -12.049200  36.005800 -29.818600  12.096800  80.725800 -31.050700  29.431000  41.666700 -59.040500  54.333300 108.293000 -17.144800  -0.001708  -0.000406 -13.572500  -0.006529   0.000545  83.006400   4.957300   0.606992  67.935800   0.008226   0.000337  50.951900   0.001025  -0.001685  77.887000   0.006882   0.009261  77.887000   0.005576  -0.000681  58.415300  -0.000833  -0.006663  84.159200  -4.970620  -0.512849  84.181500   0.008287  -0.006118  63.136200   0.005359  -0.002613  87.096200  -9.983510  -0.504150 110.000000  -0.003083  -0.004791  80.000000   0.000469   0.004404   3.794300  10.885700  -1.823350   0.234398   1.498390  11.472600  -3.707580  -3.403770  -0.956562  -0.000000   0.000000  -0.000000  -0.110205  11.746700  -7.188770   1.318520   1.493040 -13.108500  -0.146201  -3.945600  -0.696702  -0.000000   0.000000   0.000000
 -2.450400  89.444400  -0.356948  -0.450370  -9.372890   2.290490  -1.390550   6.676010  -0.529668  -2.746750  13.362800  -0.904077   9.054070  -0.092190   0.014701  14.874500  -0.173300   1.542560  -1.938410   2.780440   6.426940 -73.096900   9.856810  -1.789800  -0.807126   0.646886 -12.550600  11.326000  -5.821620  -2.035040  36.295400  28.073800 -45.777500 -34.650400  -0.000929  -0.000580 -12.373800  -0.000547   0.002731 -37.964800  -0.910274   1.166220 -31.076400   0.000243  -0.002954 -21.753700   0.002961   0.005140 -30.226500  -3.736840   6.381880 -45.652500  -0.002203  -0.004449 -30.404500  -0.001510  -0.005546 -29.140300  -4.795550   8.528130 -44.247000   0.000236   0.009115 -29.465400  -0.001067   0.003203 -39.131100  -6.205330   7.567970 -59.312900   0.008911  -0.008943 -39.502400   0.008113   0.000104   2.421140  -1.584140   4.389490  -9.006520 -12.034200  35.941500 -29.930100  12.041200  80.761200 -30.982700  29.497800  41.546500 -59.040500  54.333300 108.293000 -17.169500  -0.001777  -0.000426 -13.584800  -0.006630   0.000461  82.928400   4.957150   0.613939  67.872200   0.008504   0.000336  50.904100   0.000911  -0.001724  77.788300   0.007116   0.009591  77.788300   0.005659  -0.000688  58.341200  -0.000985  -0.006846  84.116800  -4.970630  -0.515713  84.139300   0.008594  -0.006337  63.104500   0.005579  -0.003064  87.016200  -9.983420  -0.517952 110.000000  -0.002983  -0.004809  80.000000   0.000446   0.004510   3.787810  10.854400  -1.832760   0.216656   1.464400  11.512100  -3.693080  -3.394560  -0.922228  -0.000000   0.000000   0.000000  -0.145954  11.697500  -7.195210   1.331650   1.462930 -13.083900  -0.143267  -3.926410  -0.656374   0.000000   0.000000   0.000000
 -2.433710  89.445400  -0.357165  -0.452964  -9.318810   2.231350  -1.391540   6.644580  -0.521786  -2.750210  13.299800  -0.888621   9.032700  -0.061790   0.011121  14.839200  -0.116070   1.468310  -1.957210   2.845960   6.440100 -73.222400   9.778920  -1.735780  -0.811142   0.654639 -12.547200  11.305800  -5.818190  -2.039250  36.265000  28.011900 -45.876900 -34.672200  -0.000951  -0.000614 -12.384000  -0.000570   0.002630 -37.965700  -0.897177   1.149490 -31.076500   0.000236  -0.002949 -21.754600   0.003034   0.005202 -30.303100  -3.736680   6.360500 -45.766400  -0.002260  -0.004619 -30.480400  -0.001551  -0.005685 -29.141500  -4.784150   8.507570 -44.246200   0.000273   0.009260 -29.466400  -0.001034   0.003061 -39.116400  -6.188880   7.551030 -59.287500   0.009082  -0.009054 -39.485500   0.008250   0.000150   2.394870  -1.555500   4.357740  -8.969880 -12.014000  35.865800 -30.020100  11.993400  80.784400 -30.917300  29.532200  41.373300 -59.000300  54.315600 108.243000 -17.183900  -0.001838  -0.000493 -13.592000  -0.006706   0.000358  82.910100   4.986780   0.619883  67.857800   0.008794   0.000328  50.893300   0.000797  -0.001749  77.770300   0.007324   0.009919  77.770300   0.005722  -0.000711  58.327700  -0.001139  -0.007037  84.101100  -4.970610  -0.515117  84.123500   0.008894  -0.006538  63.092700   0.005802  -0.003450  86.982700  -9.983350  -0.522915 110.000000  -0.002890  -0.004825  80.000000   0.000425   0.004613   3.767280  10.830500  -1.860710   0.208038   1.425380  11.577600  -3.678660  -3.384270  -0.895444  -0.000000   0.000000   0.000000  -0.179089  11.546900  -7.188950   1.332760   1.518020 -13.089400  -0.139145  -3.908990  -0.601150  -0.000000   0.000000   0.000000
